PathFileType	4	(X/Y/Z)	Patient4_TMGait_0pt5_02_right_08.trc.trc
DataRate	CameraRate	NumFrames	NumMarkers	Units	OrigDataRate	OrigDataStartFrame	OrigNumFrames
77.348066298343	77.348066298343	5	33	mm	77.348066298343	1	       141
Frame#	Time	Sacral			L.Shoulder			Chest			R.Shoulder			Neck			R.ASIS			L.ASIS			R.Thigh.Superior			R.Thigh.Lateral			R.Thigh.Inferior			R.Patella			L.Thigh.Superior			L.Thigh.Lateral			L.Thigh.Inferior			L.Patella			L.Shank.Superior			L.Shank.Lateral			L.Shank.Inferior			R.Shank.Superior			R.Shank.Lateral			R.Shank.Inferior			R.Heel			R.Midfoot.Superior			R.Midfoot.Lateral			R.Toe			L.Heel			L.Midfoot.Lateral			L.Midfoot.Superior			L.Toe			L.Elbow			L.Wrist			R.Elbow			R.Wrist			
		X1	Y1	Z1	X2	Y2	Z2	X3	Y3	Z3	X4	Y4	Z4	X5	Y5	Z5	X6	Y6	Z6	X7	Y7	Z7	X8	Y8	Z8	X9	Y9	Z9	X10	Y10	Z10	X11	Y11	Z11	X12	Y12	Z12	X13	Y13	Z13	X14	Y14	Z14	X15	Y15	Z15	X16	Y16	Z16	X17	Y17	Z17	X18	Y18	Z18	X19	Y19	Z19	X20	Y20	Z20	X21	Y21	Z21	X22	Y22	Z22	X23	Y23	Z23	X24	Y24	Z24	X25	Y25	Z25	X26	Y26	Z26	X27	Y27	Z27	X28	Y28	Z28	X29	Y29	Z29	X30	Y30	Z30	X31	Y31	Z31	X32	Y32	Z32	X33	Y33	Z33	

1	10.460000000000	548.533378777376	1006.371018460702	470.588693733417	726.093555156879	1435.749371919217	294.908817217862	829.184274852526	1362.411976791084	454.570516444830	747.137699361707	1435.692134331617	630.596962841674	726.924325020249	1494.877853926369	446.340775345576	774.245991776262	940.500307005123	591.879410663769	766.457354829690	961.181370241468	316.443894228114	842.693538450123	756.857577826685	565.271539438867	787.393396367735	637.445370729501	630.762817356010	877.212062697142	591.221718258255	556.127000005724	882.389520035988	475.545365146465	575.756838968482	820.676630353492	755.614348638737	342.332002474581	737.820336555490	637.509327308627	284.276403039202	825.255749238607	562.962025359885	347.894980095982	828.134601637508	492.261021502676	357.911420441418	802.584777374508	418.979746078493	349.957760967483	715.691120625138	302.778814766703	299.382146287754	767.283487115712	193.699478749366	372.327738555465	798.887339481280	408.754448516261	578.351972529869	673.050970069014	381.728663819555	635.870633491892	646.854818393953	276.978892289510	583.187029297977	440.010667616376	242.431587827018	551.650567907490	599.373203010446	161.913535171527	590.719634557395	489.292548541938	171.370690899878	621.861228927993	649.951605935456	41.860396999582	611.914901350403	640.288296241390	37.096282547937	414.670598867764	714.955234745214	34.540598737787	334.249371370644	797.560334127221	96.040097678613	361.654063254175	926.573854183676	45.214443454893	335.485015994653	709.852074264376	1089.589495417740	153.553185317858	864.206547897867	876.623695368653	143.538154197820	727.372760994359	1086.590677819050	744.097942600923	853.957133945710	857.416139311257	731.648398149482	
2	10.472928571429	547.846065547062	1007.226356065043	469.353910462902	728.314239501522	1436.238156545580	294.159071892280	829.565765975156	1362.829315926493	454.878359568990	746.099372859470	1436.360325877513	630.007270595487	727.922902407451	1495.466820536728	445.563488762411	772.487701993518	941.603083371682	591.462839549581	766.489907246716	961.814463868540	316.108721977470	844.606208124588	761.632958773561	564.196491435776	792.910847191443	641.313416226712	630.142611764031	883.367357857728	597.082943663176	554.920462180051	891.660998544560	481.454852450700	574.506438990925	818.548989344169	754.780715014445	342.583209979222	734.537365783070	637.611665262285	284.418417921307	820.749612131801	562.202947075957	348.525853241438	822.709932118860	491.626310126221	358.702646063619	797.075326497682	418.691541002652	350.443946840419	709.935197456664	302.860056347831	299.502013999813	760.847361955939	193.569448577361	372.624064123228	809.410048950218	412.984469525409	577.425999427235	684.384325689549	383.456763536110	635.423962510318	659.856517077712	278.355488484796	582.816615054212	453.630385998748	239.731067087261	552.160338080130	614.763193248765	162.288298338212	590.186683528247	504.656725255125	169.527830282904	622.014906694035	667.755743104453	43.110864991391	611.033964213540	633.313448242691	37.099738068438	414.640480505405	708.032164732661	34.549403903447	334.229288258339	790.630882306397	96.017216598571	361.717488189306	919.635408781689	45.218382800228	335.487601715030	717.871321849154	1090.834742318173	151.418265650201	878.509760810159	883.042141458010	142.855176473181	717.137338969627	1088.142031187496	742.602867197870	828.486549832205	852.701791178334	731.728729988940	
3	10.485857142857	547.196667883634	1008.056888026681	468.162397753386	730.535342175639	1436.726570879890	293.460494400595	829.959116685448	1363.230724128061	455.216249419538	745.080676550594	1437.010136714181	629.462588356749	728.918545093615	1496.045226604680	444.832262799091	770.788814343577	942.706762694916	591.088094895401	766.539378118507	962.413243579345	315.808025572134	846.463852681145	766.334859616332	563.160710478865	798.327836691061	645.137282819001	629.558113709272	889.362439481242	602.854815690786	553.742064857422	900.712619467252	487.314421404933	573.320139342483	816.428667947144	753.954295557863	342.879175489836	731.288905078886	637.712718338147	284.565260032670	816.273564655900	561.452176625764	349.158125566608	817.328393194063	491.003388564132	359.490214131527	791.605562124719	418.404206196947	350.931179202118	704.228004215827	302.935643467171	299.622797899223	754.460993822320	193.437524734954	372.922093207398	819.789648905778	417.121358095497	576.565835081956	695.595941165227	384.951983446998	635.026434719332	672.877756811115	279.443905309671	582.511745945436	467.301579070104	236.482080201247	552.723221263672	630.302900216146	162.330297487570	589.748748845749	520.158012154437	167.239285040056	622.261098375903	685.869610437484	44.106923655820	610.296255680949	626.390906420116	37.100590590715	414.614581920654	701.162946042632	34.557632994581	334.212645198175	783.755395450989	95.994224679187	361.783789511477	912.751840540910	45.219922491771	335.492250999863	725.722832095579	1092.086261896028	149.363126382178	892.631979012800	889.515710772028	142.281896512831	706.919651590265	1089.736695689157	741.164127274161	803.320551781590	848.318970544546	731.769192074716	
4	10.498785714286	546.618278961949	1008.837585362698	467.050044069925	732.757258842210	1437.208285561223	292.867664381792	830.380406640080	1363.595252369673	455.618543537000	744.109193593716	1437.618299106356	629.010874189189	729.913755082078	1496.596873791109	444.200066084625	769.204527278727	943.793467858651	590.795163349048	766.632522501489	962.955097261575	315.578930646441	848.187908128410	770.837429242521	562.214327365395	803.474293226492	648.826034654618	629.056705926886	894.972277239077	608.379182515868	552.640785042627	909.260134842010	493.032941247505	572.271110387169	814.332684875497	753.138645852342	343.260952280537	728.113383255773	637.808861255520	284.719439738210	811.859126848381	560.713416752381	349.792993089274	812.030816299893	490.398233437588	360.268595494407	786.214767152410	418.114787228803	351.417584968282	698.610383291116	302.999359443817	299.744913978317	748.163177214749	193.300011269210	373.222609655387	829.841892226904	421.055597319679	575.846982471560	706.594154992942	385.961624401650	634.753545619972	685.990529040196	279.980128475094	582.350055546667	481.236732656917	232.142304697848	553.408631059268	646.234619457383	161.770314580202	589.505894677468	536.080013383920	164.095659757211	622.696615323142	704.686006165083	44.722101155100	609.833505124476	619.558876427667	37.097519934617	414.595596923311	694.384995629948	34.564928826856	334.202618809738	776.972407403691	95.971221615194	361.855453224552	905.961832134892	45.216784338880	335.501288432254	733.246584498663	1093.337305561336	147.476175893377	906.384228231823	896.110776087062	141.944899991348	696.761882887124	1091.419527791622	739.828087911192	778.782916109914	844.579944446660	731.730016746033	
5	10.511714285714	546.130588935504	1009.551226208814	466.038229457902	734.983303668684	1437.672752699084	292.426421043562	830.844748308042	1363.903214346382	456.116317938899	743.206408521294	1438.162405412479	628.689732006491	730.915241503880	1497.104754478452	443.709880801916	767.772058533197	944.839104820308	590.613752992102	766.788277812547	963.418104911105	315.451693224290	849.709636500858	775.023301610593	561.401509111354	808.194627910606	652.291210016617	628.680783072299	899.999937572326	613.506655037871	551.662999315349	917.059156196283	498.525721238489	571.421361231197	812.277727138980	752.333599702474	343.761630554870	725.040070291197	637.895769227949	284.880922673450	807.526389730637	559.986842490353	350.431041701710	806.840327710627	489.810796223905	361.031901726984	780.924454245738	417.817386742299	351.901291776011	693.102205096246	303.045180439465	299.868227398492	741.968481424149	193.152327794371	373.526462650836	839.419358223136	424.692730567809	575.334234185509	717.339448215694	386.262935944046	634.679949269218	699.304007562743	279.750670004388	582.403642439363	495.705227516165	226.253296439124	554.290011926023	662.830578037777	160.403782927315	589.545036537938	552.749420616499	159.759779601428	623.408303234334	724.602329493972	44.894984001615	609.746435386910	612.828522918126	37.089687579563	414.585297859905	687.707712515839	34.570874784610	334.201442244427	770.292339815902	95.948089123984	361.934598831225	899.275920428577	45.207455989171	335.516556728394	740.329303146919	1094.576390125646	145.828547591968	919.635404901820	902.899051818002	141.953109607151	686.683719456812	1093.231541215592	738.625111497471	755.097091432697	841.723346045679	731.578937038662	
